<?xml version="1.0" standalone="no"?>
<!DOCTYPE svg PUBLIC "-//W3C//DTD SVG 20010904//EN"
 "http://www.w3.org/TR/2001/REC-SVG-20010904/DTD/svg10.dtd">
<svg version="1.0" xmlns="http://www.w3.org/2000/svg"
 width="500.000000pt" height="500.000000pt" viewBox="0 0 500.000000 500.000000"
 preserveAspectRatio="xMidYMid meet">

<g transform="translate(0.000000,500.000000) scale(0.100000,-0.100000)"
fill="#000000" stroke="none">
<path d="M2205 4474 c-402 -55 -784 -241 -1085 -530 -322 -310 -517 -674 -597
-1114 -22 -122 -24 -504 -4 -630 44 -278 130 -518 265 -739 84 -138 158 -233
276 -355 182 -187 345 -307 564 -412 327 -156 633 -210 1051 -185 437 27 855
210 1191 524 267 249 483 609 569 949 54 210 59 258 60 518 0 231 -2 253 -28
380 -87 416 -274 759 -569 1047 -315 305 -698 492 -1128 548 -141 18 -426 18
-565 -1z m1101 -335 c8 -6 14 -8 14 -4 0 4 7 2 15 -5 15 -13 22 -51 30 -180 9
-147 25 -383 30 -430 2 -25 7 -88 11 -140 4 -52 8 -111 9 -130 17 -223 18
-249 3 -272 -11 -17 -24 -23 -44 -22 -16 0 -42 -5 -59 -12 -16 -7 -34 -11 -40
-11 -5 1 -12 -24 -15 -55 -3 -32 -1 -58 4 -58 4 0 3 -7 -4 -15 -10 -12 -10
-15 1 -15 11 0 11 -2 -1 -10 -12 -8 -12 -10 -1 -10 9 0 12 -8 9 -25 -3 -14 -1
-25 4 -25 5 0 6 -10 3 -21 -5 -15 -4 -19 4 -15 6 4 11 3 11 -3 0 -5 -6 -12
-12 -14 -8 -3 -6 -6 5 -6 9 -1 17 -7 17 -14 0 -8 9 -24 20 -37 11 -12 17 -26
14 -31 -3 -5 3 -6 12 -2 13 5 16 3 11 -10 -4 -11 -2 -14 9 -10 7 3 14 0 14 -6
0 -6 7 -8 15 -5 8 4 15 2 15 -4 0 -10 29 -7 65 8 42 17 55 19 55 7 0 -9 2 -9
9 1 11 17 82 12 99 -8 8 -8 11 -9 7 -2 -5 10 0 11 22 6 42 -11 75 -35 69 -51
-3 -8 -2 -12 3 -9 5 3 17 -6 27 -20 11 -15 25 -32 32 -39 6 -8 12 -20 12 -27
0 -8 5 -19 11 -25 11 -11 12 -52 8 -155 -1 -15 -5 -26 -9 -23 -4 2 -5 -7 -2
-20 2 -15 0 -25 -7 -25 -6 0 -11 -9 -11 -21 0 -12 -8 -23 -20 -26 -11 -3 -17
-9 -14 -14 3 -5 0 -9 -5 -9 -6 0 -10 -4 -9 -9 4 -12 -93 -101 -109 -101 -7 0
-13 -4 -13 -9 0 -12 -100 -62 -111 -55 -5 3 -8 0 -7 -8 2 -7 -6 -13 -17 -12
-15 0 -20 -7 -21 -29 -1 -16 -5 -32 -10 -36 -5 -3 -10 -15 -11 -26 -4 -42 -16
-81 -30 -97 -8 -9 -12 -22 -7 -29 5 -8 3 -10 -6 -4 -10 6 -12 4 -7 -8 3 -10 2
-17 -4 -17 -6 0 -7 -4 -4 -10 3 -5 -2 -10 -12 -10 -12 0 -14 -3 -6 -8 10 -6 8
-17 -8 -47 -12 -22 -25 -42 -30 -43 -5 -2 -7 -7 -4 -12 3 -5 -2 -16 -11 -24
-8 -9 -12 -16 -7 -16 4 0 1 -6 -8 -13 -9 -7 -22 -25 -30 -42 -9 -16 -21 -29
-28 -27 -7 1 -10 -2 -6 -8 3 -5 -5 -21 -19 -35 -14 -14 -20 -25 -13 -25 8 0 7
-4 -3 -9 -8 -6 -18 -7 -24 -4 -5 3 -6 1 -2 -5 3 -6 -18 -37 -49 -68 -30 -32
-55 -54 -55 -50 0 4 -13 -8 -30 -26 -16 -18 -30 -29 -30 -26 0 4 -12 -4 -27
-18 -14 -13 -31 -23 -37 -21 -6 2 -18 -4 -27 -14 -19 -22 -128 -74 -136 -66
-3 4 -12 -1 -20 -9 -9 -8 -22 -13 -29 -10 -8 3 -14 2 -14 -3 0 -4 -6 -8 -12
-9 -7 0 -35 -3 -63 -7 -27 -3 -80 -8 -117 -10 -59 -4 -68 -2 -68 13 0 11 -3
13 -8 6 -8 -12 -72 -17 -72 -6 0 4 -12 8 -27 8 -46 2 -113 21 -113 33 0 4 -10
8 -22 8 -13 1 -24 7 -26 13 -2 5 -8 8 -13 4 -5 -3 -9 0 -9 7 0 7 -3 10 -6 6
-9 -8 -64 21 -64 33 0 6 -3 9 -7 8 -13 -4 -53 28 -46 36 4 4 0 4 -9 1 -11 -5
-43 21 -110 89 -119 121 -130 134 -122 148 4 6 3 9 -2 6 -5 -3 -15 0 -22 8 -7
8 -9 14 -5 14 4 0 0 5 -10 11 -9 6 -15 14 -12 20 4 5 2 9 -3 9 -11 0 -38 60
-34 73 1 5 -2 6 -8 2 -10 -6 -37 51 -32 68 1 4 -3 7 -9 7 -6 0 -9 7 -5 15 3 8
1 15 -5 15 -6 0 -8 4 -5 9 3 5 -1 12 -10 15 -9 4 -14 9 -11 13 4 3 3 11 -2 17
-13 16 -17 49 -8 63 5 9 3 11 -6 7 -14 -5 -37 42 -42 86 -1 8 -5 22 -8 30 -4
8 -9 27 -12 43 -12 62 -16 81 -21 89 -3 4 1 8 8 8 10 0 10 2 1 8 -7 4 -15 35
-18 67 -4 42 -2 55 5 45 7 -11 10 -11 10 -2 0 7 -7 15 -15 19 -12 4 -15 20
-14 74 1 43 6 69 13 69 8 0 8 2 0 8 -11 7 -16 172 -4 172 3 0 5 22 4 50 -1 27
1 48 4 46 4 -2 7 16 7 41 1 27 6 48 15 54 11 6 11 9 2 9 -10 0 -10 5 -2 20 6
11 8 20 6 20 -3 0 -1 11 4 25 5 14 12 37 14 51 8 41 27 94 34 94 4 0 7 14 8
30 1 29 0 30 -50 31 -85 3 -123 6 -138 11 -19 8 -36 73 -32 128 1 25 5 101 8
170 6 122 11 222 21 365 2 39 7 124 11 190 9 165 13 224 23 286 1 4 17 14 36
23 30 15 102 17 582 23 301 3 549 6 550 7 1 1 148 3 328 4 241 3 330 0 341 -9z
m-1869 -1692 c10 0 13 -29 13 -106 1 -174 4 -226 15 -233 6 -5 4 -12 -5 -18
-12 -8 -12 -10 -1 -10 9 0 12 -8 9 -25 -3 -14 -2 -25 3 -25 4 0 6 -16 4 -35
-2 -19 0 -33 5 -30 4 2 6 -7 4 -20 -1 -14 2 -25 8 -25 6 0 8 -9 5 -20 -3 -11
-2 -20 3 -20 4 0 10 -11 12 -24 4 -19 1 -24 -14 -23 -10 1 -18 5 -18 10 0 4
-4 6 -10 2 -14 -8 -61 6 -54 17 8 13 -4 58 -17 58 -18 0 -79 52 -79 67 0 9 -6
13 -15 9 -8 -3 -15 -1 -15 4 0 19 -3 25 -18 36 -9 7 -12 16 -7 25 5 8 5 11 0
7 -9 -9 -47 61 -39 73 3 5 0 9 -7 9 -7 0 -9 10 -7 25 3 14 2 25 -1 25 -3 0 -7
16 -8 35 -2 19 1 35 7 35 5 0 9 10 8 23 -2 42 2 58 12 52 6 -3 7 1 4 9 -7 17
63 89 77 80 5 -3 9 0 9 7 0 7 3 10 6 7 3 -3 17 -2 32 2 15 4 36 6 47 2 11 -3
26 -5 32 -5z"/>
<path d="M2371 4045 c-63 -23 -141 -85 -141 -112 0 -7 -5 -13 -10 -13 -12 0
-80 -136 -80 -160 0 -8 -7 -34 -15 -58 -31 -87 -35 -222 -11 -372 8 -50 61
-171 79 -178 4 -2 7 -9 7 -16 0 -26 112 -102 132 -90 4 3 8 1 8 -5 0 -6 15 -9
33 -7 135 13 230 107 292 290 79 230 41 533 -84 669 -66 72 -120 85 -210 52z
m99 -97 c52 -27 89 -89 116 -198 30 -119 9 -320 -47 -445 -59 -133 -157 -189
-226 -131 -72 61 -107 178 -106 356 0 179 52 329 141 407 44 39 63 40 122 11z"/>
<path d="M2912 4013 c-10 -20 -40 -110 -47 -139 -2 -10 -19 -67 -38 -126 -19
-60 -32 -108 -28 -108 3 0 0 -4 -8 -9 -21 -13 -16 -81 8 -104 16 -17 38 -20
153 -24 73 -3 135 -9 138 -13 5 -8 3 -275 -1 -275 -1 0 -3 -30 -4 -68 -2 -71
-1 -72 55 -78 59 -6 56 -20 59 229 1 125 4 333 6 462 2 129 2 242 -1 250 -3
14 -16 15 -80 11 -5 -1 -11 -20 -13 -43 -1 -23 -4 -45 -7 -50 -3 -4 0 -8 6 -8
6 0 9 -4 6 -8 -3 -5 -8 -69 -11 -143 -4 -74 -8 -139 -10 -144 -1 -6 -16 -10
-31 -9 -16 1 -62 2 -101 3 -57 1 -73 4 -73 16 0 8 23 94 50 192 28 97 48 183
46 190 -8 20 -64 16 -74 -4z"/>
<path d="M1704 4002 c-15 -2 -25 -18 -39 -60 -11 -31 -48 -138 -82 -236 -35
-99 -61 -187 -58 -197 9 -27 30 -31 202 -30 l162 1 -5 -48 c-2 -26 -6 -67 -9
-92 -2 -25 -7 -74 -11 -110 -11 -95 -10 -140 1 -141 6 0 15 -5 21 -10 11 -9
71 -2 78 10 2 3 7 49 10 101 4 52 9 109 11 125 3 17 7 77 10 135 3 58 8 123
10 145 14 127 34 399 29 407 -6 9 -39 10 -70 2 -18 -5 -23 -17 -32 -92 -6 -48
-11 -94 -11 -102 -1 -21 -9 -108 -16 -156 -5 -39 -8 -42 -43 -48 -20 -3 -77
-6 -125 -6 -80 0 -88 2 -83 18 20 62 59 190 63 207 3 11 16 55 29 98 13 43 24
80 24 82 0 5 -24 4 -66 -3z"/>
<path d="M3086 2925 c-9 -26 -7 -32 5 -12 6 10 9 21 6 23 -2 3 -7 -2 -11 -11z"/>
<path d="M2175 2919 c-4 -6 -5 -12 -2 -15 2 -3 7 2 10 11 7 17 1 20 -8 4z"/>
<path d="M2742 2895 c-17 -37 -14 -45 4 -12 9 16 14 31 11 33 -2 2 -9 -7 -15
-21z"/>
<path d="M2977 2909 c7 -7 15 -10 18 -7 3 3 -2 9 -12 12 -14 6 -15 5 -6 -5z"/>
<path d="M1882 2890 c0 -14 2 -19 5 -12 2 6 2 18 0 25 -3 6 -5 1 -5 -13z"/>
<path d="M2335 2899 c-4 -6 -5 -12 -2 -15 2 -3 7 2 10 11 7 17 1 20 -8 4z"/>
<path d="M2787 2899 c7 -7 15 -10 18 -7 3 3 -2 9 -12 12 -14 6 -15 5 -6 -5z"/>
<path d="M2430 2892 c0 -4 9 -15 20 -25 11 -9 20 -13 20 -9 0 4 -9 15 -20 25
-11 9 -20 13 -20 9z"/>
<path d="M2240 2881 c0 -6 4 -13 10 -16 6 -3 7 1 4 9 -7 18 -14 21 -14 7z"/>
<path d="M2760 2886 c0 -2 7 -7 16 -10 8 -3 12 -2 9 4 -6 10 -25 14 -25 6z"/>
<path d="M1840 2860 c-8 -5 -10 -10 -5 -10 6 0 17 5 25 10 8 5 11 10 5 10 -5
0 -17 -5 -25 -10z"/>
<path d="M2990 2865 c0 -5 5 -17 10 -25 5 -8 10 -10 10 -5 0 6 -5 17 -10 25
-5 8 -10 11 -10 5z"/>
<path d="M3095 2859 c-11 -16 -1 -19 13 -3 7 8 8 14 3 14 -5 0 -13 -5 -16 -11z"/>
<path d="M3152 2836 c7 -8 15 -12 17 -11 5 6 -10 25 -20 25 -5 0 -4 -6 3 -14z"/>
<path d="M3190 2800 c-8 -5 -10 -10 -5 -10 6 0 17 5 25 10 8 5 11 10 5 10 -5
0 -17 -5 -25 -10z"/>
<path d="M2760 2770 c-9 -6 -10 -10 -3 -10 6 0 15 5 18 10 8 12 4 12 -15 0z"/>
<path d="M1810 2750 c-8 -5 -10 -10 -5 -10 6 0 17 5 25 10 8 5 11 10 5 10 -5
0 -17 -5 -25 -10z"/>
<path d="M2386 2703 c-6 -14 -5 -15 5 -6 7 7 10 15 7 18 -3 3 -9 -2 -12 -12z"/>
<path d="M3100 2711 c0 -6 4 -13 10 -16 6 -3 7 1 4 9 -7 18 -14 21 -14 7z"/>
<path d="M2675 2680 c3 -6 1 -10 -6 -10 -7 0 -10 -3 -6 -6 3 -3 13 -2 22 4 16
8 16 9 1 15 -10 4 -15 3 -11 -3z"/>
<path d="M2925 2682 c-2 -2 -21 -6 -42 -8 -40 -4 -78 -11 -78 -15 0 -1 -16 -3
-35 -4 -44 -2 -85 -25 -86 -47 -1 -10 2 -15 7 -12 5 3 9 0 9 -7 0 -8 15 -10
53 -5 28 4 68 9 87 11 49 6 63 9 78 18 6 5 16 5 22 2 11 -7 47 10 43 19 -6 13
-2 25 11 39 12 12 8 14 -25 13 -22 0 -42 -2 -44 -4z"/>
<path d="M1930 2668 c-12 -4 -27 -5 -33 -1 -7 4 -6 0 1 -10 8 -9 10 -22 6 -28
-4 -7 -3 -9 4 -5 5 3 12 2 14 -3 3 -9 23 -13 126 -27 28 -3 52 -12 52 -18 0
-7 3 -7 8 -1 4 6 21 11 37 12 50 4 55 6 55 17 0 21 -35 41 -75 45 -22 1 -43 8
-47 14 -4 7 -8 8 -8 2 0 -5 -5 -3 -10 5 -7 11 -10 12 -10 2 0 -9 -7 -11 -21
-7 -33 11 -75 12 -99 3z"/>
<path d="M2326 2663 c-6 -14 -5 -15 5 -6 7 7 10 15 7 18 -3 3 -9 -2 -12 -12z"/>
<path d="M2715 2670 c-3 -6 1 -7 9 -4 18 7 21 14 7 14 -6 0 -13 -4 -16 -10z"/>
<path d="M2620 2666 c0 -2 7 -7 16 -10 8 -3 12 -2 9 4 -6 10 -25 14 -25 6z"/>
<path d="M1815 2649 c-4 -6 -5 -12 -2 -15 2 -3 7 2 10 11 7 17 1 20 -8 4z"/>
<path d="M1693 2622 c-1 -22 0 -24 9 -8 6 10 6 22 2 26 -5 5 -10 -3 -11 -18z"/>
<path d="M2415 2639 c-4 -6 -5 -12 -2 -15 2 -3 7 2 10 11 7 17 1 20 -8 4z"/>
<path d="M3066 2633 c-6 -14 -5 -15 5 -6 7 7 10 15 7 18 -3 3 -9 -2 -12 -12z"/>
<path d="M3155 2640 c-3 -5 -2 -18 4 -27 7 -14 9 -12 8 10 -2 30 -3 31 -12 17z"/>
<path d="M3276 2635 c-9 -26 -7 -32 5 -12 6 10 9 21 6 23 -2 3 -7 -2 -11 -11z"/>
<path d="M3250 2600 c8 -5 20 -10 25 -10 6 0 3 5 -5 10 -8 5 -19 10 -25 10 -5
0 -3 -5 5 -10z"/>
<path d="M1564 2570 c0 -13 4 -16 10 -10 7 7 7 13 0 20 -6 6 -10 3 -10 -10z"/>
<path d="M2310 2575 c0 -5 4 -16 9 -23 6 -11 10 -10 15 4 3 9 4 19 1 22 -3 3
-5 -1 -5 -9 0 -11 -2 -11 -10 1 -5 8 -10 11 -10 5z"/>
<path d="M2775 2569 c-11 -16 -1 -19 13 -3 7 8 8 14 3 14 -5 0 -13 -5 -16 -11z"/>
<path d="M1636 2555 c-9 -26 -7 -32 5 -12 6 10 9 21 6 23 -2 3 -7 -2 -11 -11z"/>
<path d="M1716 2554 c-4 -10 -2 -22 4 -28 8 -8 9 -6 4 7 -5 14 -2 16 12 11 11
-3 15 -2 9 3 -5 4 -13 12 -16 16 -4 4 -9 0 -13 -9z"/>
<path d="M2026 2553 c-6 -14 -5 -15 5 -6 7 7 10 15 7 18 -3 3 -9 -2 -12 -12z"/>
<path d="M2175 2549 c-4 -6 -5 -12 -2 -15 2 -3 7 2 10 11 7 17 1 20 -8 4z"/>
<path d="M2860 2546 c0 -2 7 -7 16 -10 8 -3 12 -2 9 4 -6 10 -25 14 -25 6z"/>
<path d="M2977 2539 c7 -7 15 -10 18 -7 3 3 -2 9 -12 12 -14 6 -15 5 -6 -5z"/>
<path d="M2787 2529 c7 -7 15 -10 18 -7 3 3 -2 9 -12 12 -14 6 -15 5 -6 -5z"/>
<path d="M2860 2489 c0 -4 -11 -6 -24 -6 -14 0 -32 -8 -41 -16 -8 -9 -24 -18
-34 -22 -24 -7 -95 -76 -99 -96 -2 -8 -12 -23 -23 -35 -10 -11 -19 -28 -19
-37 0 -9 -4 -17 -10 -17 -5 0 -9 -5 -7 -12 3 -18 21 -37 30 -31 4 2 7 0 7 -6
0 -22 26 1 44 39 11 22 22 40 26 40 4 0 10 9 13 20 3 11 13 23 24 27 10 4 25
15 34 25 9 10 19 15 23 11 3 -3 6 -1 6 6 0 7 6 11 14 8 8 -3 17 0 19 8 3 7 21
13 43 13 20 0 32 -3 25 -7 -7 -5 -12 -27 -13 -49 0 -24 -5 -42 -12 -42 -6 0
-5 -4 3 -9 8 -5 14 -23 15 -40 0 -17 5 -31 9 -31 5 0 24 -16 43 -37 19 -20 37
-33 41 -30 3 4 1 7 -5 7 -7 0 -12 5 -12 12 0 6 3 9 6 5 6 -6 24 6 47 31 7 7
17 18 23 25 6 6 9 19 6 29 -2 10 0 18 5 18 5 0 9 24 9 54 -1 30 -4 52 -7 51
-6 -5 -34 66 -31 78 1 5 -3 5 -9 1 -7 -4 -17 -1 -23 7 -11 14 -146 21 -146 8z"/>
<path d="M2110 2474 c-19 -7 -47 -15 -62 -18 -15 -3 -34 -13 -42 -22 -9 -8
-21 -12 -27 -8 -7 4 -9 3 -6 -3 8 -13 -57 -65 -68 -55 -5 4 -5 2 -2 -4 3 -6
-6 -23 -20 -38 -14 -15 -26 -35 -28 -44 -1 -9 -8 -16 -13 -15 -6 2 -9 -4 -6
-12 4 -9 1 -21 -5 -28 -8 -10 -6 -19 5 -35 8 -12 19 -22 23 -22 13 0 46 34 49
50 2 8 9 18 15 22 7 4 8 8 3 8 -5 0 -3 7 4 15 7 8 16 12 21 9 5 -3 6 2 3 10
-5 13 42 58 63 59 4 0 14 7 21 14 7 7 20 13 28 13 8 0 14 5 14 11 0 6 7 9 15
5 8 -3 15 -1 15 5 0 6 5 7 10 4 6 -3 10 -1 10 5 0 6 4 9 10 5 6 -4 6 -16 -1
-33 -13 -34 -18 -152 -6 -152 4 0 5 -4 2 -10 -3 -5 -2 -10 3 -10 6 0 13 -7 16
-16 5 -12 2 -15 -9 -10 -10 3 -13 2 -10 -4 4 -6 12 -10 18 -9 7 1 24 -1 40 -5
16 -5 32 -4 41 3 7 6 15 9 18 6 7 -7 41 108 41 142 1 46 -14 123 -23 123 -5 0
-11 9 -15 19 -10 32 -87 45 -145 25z"/>
<path d="M2400 2476 c0 -2 7 -7 16 -10 8 -3 12 -2 9 4 -6 10 -25 14 -25 6z"/>
<path d="M2610 2430 c-8 -5 -10 -10 -5 -10 6 0 17 5 25 10 8 5 11 10 5 10 -5
0 -17 -5 -25 -10z"/>
<path d="M3510 2415 c0 -5 5 -17 10 -25 5 -8 10 -10 10 -5 0 6 -5 17 -10 25
-5 8 -10 11 -10 5z"/>
<path d="M1626 2397 c3 -10 9 -15 12 -12 3 3 0 11 -7 18 -10 9 -11 8 -5 -6z"/>
<path d="M2366 2397 c3 -10 9 -15 12 -12 3 3 0 11 -7 18 -10 9 -11 8 -5 -6z"/>
<path d="M1590 2371 c0 -6 4 -13 10 -16 6 -3 7 1 4 9 -7 18 -14 21 -14 7z"/>
<path d="M3187 2369 c7 -7 15 -10 18 -7 3 3 -2 9 -12 12 -14 6 -15 5 -6 -5z"/>
<path d="M3800 2371 c0 -6 4 -13 10 -16 6 -3 7 1 4 9 -7 18 -14 21 -14 7z"/>
<path d="M3292 2354 c-7 -8 -8 -14 -3 -14 10 0 25 19 20 25 -2 1 -10 -3 -17
-11z"/>
<path d="M2420 2356 c0 -2 7 -7 16 -10 8 -3 12 -2 9 4 -6 10 -25 14 -25 6z"/>
<path d="M3100 2341 c0 -6 4 -13 10 -16 6 -3 7 1 4 9 -7 18 -14 21 -14 7z"/>
<path d="M3450 2340 c8 -5 20 -10 25 -10 6 0 3 5 -5 10 -8 5 -19 10 -25 10 -5
0 -3 -5 5 -10z"/>
<path d="M1696 2254 c-3 -9 -2 -22 2 -31 6 -10 9 -5 9 16 0 35 -2 38 -11 15z"/>
<path d="M2410 2261 c0 -6 4 -13 10 -16 6 -3 7 1 4 9 -7 18 -14 21 -14 7z"/>
<path d="M3600 2251 c0 -6 4 -13 10 -16 6 -3 7 1 4 9 -7 18 -14 21 -14 7z"/>
<path d="M3250 2230 c8 -5 20 -10 25 -10 6 0 3 5 -5 10 -8 5 -19 10 -25 10 -5
0 -3 -5 5 -10z"/>
<path d="M1606 2213 c-6 -14 -5 -15 5 -6 7 7 10 15 7 18 -3 3 -9 -2 -12 -12z"/>
<path d="M2845 2219 c-11 -16 -1 -19 13 -3 7 8 8 14 3 14 -5 0 -13 -5 -16 -11z"/>
<path d="M1720 2216 c0 -2 7 -7 16 -10 8 -3 12 -2 9 4 -6 10 -25 14 -25 6z"/>
<path d="M2316 2173 c-6 -14 -5 -15 5 -6 7 7 10 15 7 18 -3 3 -9 -2 -12 -12z"/>
<path d="M1630 2171 c0 -6 4 -13 10 -16 6 -3 7 1 4 9 -7 18 -14 21 -14 7z"/>
<path d="M1710 2171 c0 -6 4 -13 10 -16 6 -3 7 1 4 9 -7 18 -14 21 -14 7z"/>
<path d="M2370 2171 c0 -6 4 -13 10 -16 6 -3 7 1 4 9 -7 18 -14 21 -14 7z"/>
<path d="M3176 2163 c-6 -14 -5 -15 5 -6 7 7 10 15 7 18 -3 3 -9 -2 -12 -12z"/>
<path d="M2787 2159 c7 -7 15 -10 18 -7 3 3 -2 9 -12 12 -14 6 -15 5 -6 -5z"/>
<path d="M1676 2137 c3 -10 9 -15 12 -12 3 3 0 11 -7 18 -10 9 -11 8 -5 -6z"/>
<path d="M2330 2126 c0 -2 7 -7 16 -10 8 -3 12 -2 9 4 -6 10 -25 14 -25 6z"/>
<path d="M3095 2120 c-3 -6 1 -7 9 -4 18 7 21 14 7 14 -6 0 -13 -4 -16 -10z"/>
<path d="M2380 2098 c0 -5 -5 -6 -11 -3 -6 4 -10 1 -8 -6 3 -25 -1 -42 -8 -35
-4 4 -15 -13 -24 -36 -10 -24 -22 -42 -28 -41 -6 2 -8 -4 -5 -12 4 -8 2 -15
-3 -15 -5 0 -8 -14 -7 -31 2 -24 -1 -29 -14 -25 -13 5 -13 3 2 -9 12 -9 17
-22 13 -35 -3 -11 -1 -20 5 -20 5 0 6 -4 3 -10 -3 -5 0 -10 7 -10 8 0 21 -9
31 -20 9 -11 26 -20 37 -20 11 0 20 -3 20 -7 0 -5 18 -8 39 -8 22 0 39 2 39 5
-1 19 4 23 13 10 8 -11 9 -9 3 10 -4 14 -11 27 -15 28 -5 2 -7 7 -5 10 2 4
-13 8 -34 9 -53 2 -80 28 -80 75 0 21 4 38 8 38 5 0 9 6 9 13 0 6 14 36 32 66
18 29 31 61 29 70 -3 17 -48 25 -48 9z"/>
<path d="M2670 2090 c-8 -5 -10 -10 -5 -10 6 0 17 5 25 10 8 5 11 10 5 10 -5
0 -17 -5 -25 -10z"/>
<path d="M3417 2049 c7 -7 15 -10 18 -7 3 3 -2 9 -12 12 -14 6 -15 5 -6 -5z"/>
<path d="M1620 2010 c-9 -6 -10 -10 -3 -10 6 0 15 5 18 10 8 12 4 12 -15 0z"/>
<path d="M2966 2005 c-9 -26 -7 -32 5 -12 6 10 9 21 6 23 -2 3 -7 -2 -11 -11z"/>
<path d="M3056 2007 c3 -10 9 -15 12 -12 3 3 0 11 -7 18 -10 9 -11 8 -5 -6z"/>
<path d="M3180 2011 c0 -10 19 -25 25 -20 1 2 -3 10 -11 17 -8 7 -14 8 -14 3z"/>
<path d="M3396 2007 c3 -10 9 -15 12 -12 3 3 0 11 -7 18 -10 9 -11 8 -5 -6z"/>
<path d="M1694 1999 c-3 -6 -2 -15 3 -20 5 -5 9 -1 9 11 0 23 -2 24 -12 9z"/>
<path d="M3516 1963 c-6 -14 -5 -15 5 -6 7 7 10 15 7 18 -3 3 -9 -2 -12 -12z"/>
<path d="M3460 1966 c0 -2 7 -7 16 -10 8 -3 12 -2 9 4 -6 10 -25 14 -25 6z"/>
<path d="M2766 1944 c-4 -9 -4 -19 -1 -22 3 -3 5 0 5 6 0 6 8 9 18 6 10 -4 13
-2 7 3 -5 4 -13 12 -16 16 -4 4 -9 0 -13 -9z"/>
<path d="M2545 1940 c-3 -6 1 -7 9 -4 18 7 21 14 7 14 -6 0 -13 -4 -16 -10z"/>
<path d="M1890 1931 c0 -10 19 -25 25 -20 1 2 -3 10 -11 17 -8 7 -14 8 -14 3z"/>
<path d="M2670 1930 c-8 -5 -10 -10 -5 -10 6 0 17 5 25 10 8 5 11 10 5 10 -5
0 -17 -5 -25 -10z"/>
<path d="M3450 1930 c-9 -6 -10 -10 -3 -10 6 0 15 5 18 10 8 12 4 12 -15 0z"/>
<path d="M2605 1900 c-3 -6 1 -7 9 -4 18 7 21 14 7 14 -6 0 -13 -4 -16 -10z"/>
<path d="M2375 1879 c-4 -6 -5 -12 -2 -15 2 -3 7 2 10 11 7 17 1 20 -8 4z"/>
<path d="M2190 1865 c0 -5 5 -17 10 -25 5 -8 10 -10 10 -5 0 6 -5 17 -10 25
-5 8 -10 11 -10 5z"/>
<path d="M2930 1865 c0 -5 5 -17 10 -25 5 -8 10 -10 10 -5 0 6 -5 17 -10 25
-5 8 -10 11 -10 5z"/>
<path d="M1602 1844 c-7 -8 -8 -14 -3 -14 10 0 25 19 20 25 -2 1 -10 -3 -17
-11z"/>
<path d="M2055 1849 c-4 -6 -5 -12 -2 -15 2 -3 7 2 10 11 7 17 1 20 -8 4z"/>
<path d="M2795 1849 c-4 -6 -5 -12 -2 -15 2 -3 7 2 10 11 7 17 1 20 -8 4z"/>
<path d="M2890 1821 c0 -6 4 -13 10 -16 6 -3 7 1 4 9 -7 18 -14 21 -14 7z"/>
<path d="M2226 1803 c-6 -14 -5 -15 5 -6 7 7 10 15 7 18 -3 3 -9 -2 -12 -12z"/>
<path d="M2785 1810 c-3 -6 1 -7 9 -4 18 7 21 14 7 14 -6 0 -13 -4 -16 -10z"/>
<path d="M2036 1795 c-9 -26 -7 -32 5 -12 6 10 9 21 6 23 -2 3 -7 -2 -11 -11z"/>
<path d="M2230 1755 c0 -5 5 -17 10 -25 5 -8 10 -10 10 -5 0 6 -5 17 -10 25
-5 8 -10 11 -10 5z"/>
<path d="M1840 1740 c8 -5 20 -10 25 -10 6 0 3 5 -5 10 -8 5 -19 10 -25 10 -5
0 -3 -5 5 -10z"/>
<path d="M2699 1733 c-40 -13 -118 -38 -139 -44 -8 -2 -21 -10 -29 -17 -7 -7
-20 -11 -28 -8 -8 3 -11 1 -8 -4 3 -6 -3 -11 -14 -11 -24 -2 -30 -3 -53 -13
-9 -4 -42 -8 -71 -9 -30 -1 -53 -5 -50 -9 2 -5 -7 -8 -21 -8 -13 0 -27 5 -29
10 -3 6 -4 5 -3 -2 1 -7 -11 -22 -28 -33 -39 -27 -76 -99 -69 -139 3 -17 6
-39 6 -48 1 -10 7 -18 14 -18 7 0 13 -6 13 -14 0 -8 7 -17 16 -20 8 -3 12 -11
9 -16 -4 -6 -3 -9 2 -8 13 3 53 -12 53 -21 0 -4 6 -8 13 -9 31 -2 61 -13 69
-24 4 -7 8 -8 8 -3 0 6 46 10 119 9 75 0 118 3 114 9 -4 6 5 8 21 5 14 -3 26
-1 26 3 0 5 5 9 11 9 5 0 7 -6 4 -12 -4 -7 0 -5 9 6 8 10 19 15 25 11 6 -3 11
-1 11 5 0 6 5 8 10 5 6 -3 10 -1 10 5 0 6 5 8 10 5 6 -3 10 -1 10 4 0 6 7 11
15 11 8 0 15 5 15 11 0 5 5 7 10 4 6 -3 10 -1 10 6 0 7 3 9 7 6 3 -4 13 2 20
13 8 11 19 18 24 15 5 -4 9 1 9 9 0 8 11 23 25 34 14 11 25 25 25 32 0 6 5 8
12 4 7 -4 8 -3 4 5 -4 6 -2 19 5 27 6 8 12 36 12 62 1 26 6 50 11 54 7 5 3 8
-8 8 -11 0 -16 3 -13 7 4 3 -4 21 -18 38 -13 18 -21 36 -17 40 4 5 1 5 -6 1
-7 -4 -15 -1 -18 8 -3 9 -12 12 -21 9 -9 -4 -14 -2 -11 3 9 13 -93 11 -133 -3z
m146 -78 c20 -19 25 -34 25 -78 0 -44 -5 -60 -31 -96 -18 -23 -35 -39 -40 -34
-4 4 -21 42 -37 83 -17 41 -38 92 -46 113 l-16 37 60 0 c51 0 65 -4 85 -25z
m-146 -125 c27 -69 46 -129 42 -133 -11 -11 -125 -57 -129 -52 -2 2 -16 52
-31 112 -15 59 -31 118 -35 131 -7 20 -1 25 45 47 29 13 54 23 55 22 1 -1 25
-58 53 -127z m-189 -27 c12 -49 29 -105 36 -127 8 -21 13 -40 11 -42 -2 -3
-39 -6 -81 -9 l-77 -4 3 127 c3 125 3 126 28 133 54 15 56 13 80 -78z m-170
-53 c0 -122 -1 -124 -60 -89 -48 29 -60 47 -60 92 0 50 14 76 53 92 66 29 67
27 67 -95z"/>
<path d="M3070 1735 c0 -5 5 -17 10 -25 5 -8 10 -10 10 -5 0 6 -5 17 -10 25
-5 8 -10 11 -10 5z"/>
<path d="M2310 1725 c0 -5 5 -17 10 -25 5 -8 10 -10 10 -5 0 6 -5 17 -10 25
-5 8 -10 11 -10 5z"/>
<path d="M2450 1720 c-9 -6 -10 -10 -3 -10 6 0 15 5 18 10 8 12 4 12 -15 0z"/>
<path d="M2566 1713 c-6 -14 -5 -15 5 -6 7 7 10 15 7 18 -3 3 -9 -2 -12 -12z"/>
<path d="M2970 1726 c0 -2 7 -7 16 -10 8 -3 12 -2 9 4 -6 10 -25 14 -25 6z"/>
<path d="M3210 1710 c-9 -6 -10 -10 -3 -10 6 0 15 5 18 10 8 12 4 12 -15 0z"/>
<path d="M2420 1676 c0 -2 7 -7 16 -10 8 -3 12 -2 9 4 -6 10 -25 14 -25 6z"/>
<path d="M1915 1659 c-11 -16 -1 -19 13 -3 7 8 8 14 3 14 -5 0 -13 -5 -16 -11z"/>
<path d="M2175 1639 c-11 -16 -1 -19 13 -3 7 8 8 14 3 14 -5 0 -13 -5 -16 -11z"/>
<path d="M2055 1610 c-3 -6 1 -7 9 -4 18 7 21 14 7 14 -6 0 -13 -4 -16 -10z"/>
<path d="M1770 1596 c0 -2 7 -7 16 -10 8 -3 12 -2 9 4 -6 10 -25 14 -25 6z"/>
<path d="M2960 1590 c-9 -6 -10 -10 -3 -10 6 0 15 5 18 10 8 12 4 12 -15 0z"/>
<path d="M2977 1509 c7 -7 15 -10 18 -7 3 3 -2 9 -12 12 -14 6 -15 5 -6 -5z"/>
<path d="M3115 1509 c-4 -6 -5 -12 -2 -15 2 -3 7 2 10 11 7 17 1 20 -8 4z"/>
<path d="M3090 1480 c8 -5 20 -10 25 -10 6 0 3 5 -5 10 -8 5 -19 10 -25 10 -5
0 -3 -5 5 -10z"/>
<path d="M2036 1423 c-6 -14 -5 -15 5 -6 7 7 10 15 7 18 -3 3 -9 -2 -12 -12z"/>
<path d="M3057 1419 c7 -7 15 -10 18 -7 3 3 -2 9 -12 12 -14 6 -15 5 -6 -5z"/>
<path d="M3172 1406 c7 -8 15 -12 17 -11 5 6 -10 25 -20 25 -5 0 -4 -6 3 -14z"/>
<path d="M2067 1299 c7 -7 15 -10 18 -7 3 3 -2 9 -12 12 -14 6 -15 5 -6 -5z"/>
<path d="M2790 1306 c0 -2 7 -7 16 -10 8 -3 12 -2 9 4 -6 10 -25 14 -25 6z"/>
<path d="M2695 1209 c-4 -6 -5 -12 -2 -15 2 -3 7 2 10 11 7 17 1 20 -8 4z"/>
<path d="M2630 1200 c-9 -6 -10 -10 -3 -10 6 0 15 5 18 10 8 12 4 12 -15 0z"/>
<path d="M2466 1175 c-9 -26 -7 -32 5 -12 6 10 9 21 6 23 -2 3 -7 -2 -11 -11z"/>
<path d="M2742 1164 c-7 -8 -8 -14 -3 -14 10 0 25 19 20 25 -2 1 -10 -3 -17
-11z"/>
<path d="M2150 1152 c0 -7 -7 -9 -17 -5 -15 6 -16 5 -3 -9 13 -14 16 -14 23
-1 5 8 6 17 3 20 -3 4 -6 1 -6 -5z"/>
<path d="M2417 1073 c3 -7 6 -13 8 -13 2 0 5 6 8 13 3 8 -1 14 -8 14 -7 0 -11
-6 -8 -14z"/>
<path d="M2466 1077 c3 -10 9 -15 12 -12 3 3 0 11 -7 18 -10 9 -11 8 -5 -6z"/>
<path d="M2660 1085 c0 -5 5 -17 10 -25 5 -8 10 -10 10 -5 0 6 -5 17 -10 25
-5 8 -10 11 -10 5z"/>
<path d="M2250 1061 c0 -6 4 -13 10 -16 6 -3 7 1 4 9 -7 18 -14 21 -14 7z"/>
<path d="M1410 2030 c8 -5 20 -10 25 -10 6 0 3 5 -5 10 -8 5 -19 10 -25 10 -5
0 -3 -5 5 -10z"/>
</g>
</svg>
